<mxfile host="Electron" modified="2024-11-14T15:44:29.693Z" agent="Mozilla/5.0 (Macintosh; Intel Mac OS X 10_15_7) AppleWebKit/537.36 (KHTML, like Gecko) draw.io/21.1.2 Chrome/106.0.5249.199 Electron/21.4.3 Safari/537.36" etag="bN7VIXNHCNjzawT3NMPO" version="21.1.2" type="device">
  <diagram name="Page-1" id="7VcMBrwO29LvnPOrZjQx">
    <mxGraphModel dx="708" dy="472" grid="1" gridSize="10" guides="1" tooltips="1" connect="1" arrows="1" fold="1" page="1" pageScale="1" pageWidth="850" pageHeight="1100" math="0" shadow="0">
      <root>
        <mxCell id="0" />
        <mxCell id="1" parent="0" />
        <mxCell id="hBn50WoYmxZNv8LJe0MB-4" value="AI Analysis Report" style="swimlane;fontStyle=0;childLayout=stackLayout;horizontal=1;startSize=30;horizontalStack=0;resizeParent=1;resizeParentMax=0;resizeLast=0;collapsible=1;marginBottom=0;whiteSpace=wrap;html=1;fillColor=#d5e8d4;strokeColor=#82b366;" parent="1" vertex="1">
          <mxGeometry x="430" y="420" width="137" height="180" as="geometry" />
        </mxCell>
        <mxCell id="hBn50WoYmxZNv8LJe0MB-5" value="Participant Information" style="text;strokeColor=none;fillColor=none;align=left;verticalAlign=middle;spacingLeft=4;spacingRight=4;overflow=hidden;points=[[0,0.5],[1,0.5]];portConstraint=eastwest;rotatable=0;whiteSpace=wrap;html=1;" parent="hBn50WoYmxZNv8LJe0MB-4" vertex="1">
          <mxGeometry y="30" width="137" height="30" as="geometry" />
        </mxCell>
        <mxCell id="hBn50WoYmxZNv8LJe0MB-6" value="Algorithm information" style="text;strokeColor=none;fillColor=none;align=left;verticalAlign=middle;spacingLeft=4;spacingRight=4;overflow=hidden;points=[[0,0.5],[1,0.5]];portConstraint=eastwest;rotatable=0;whiteSpace=wrap;html=1;" parent="hBn50WoYmxZNv8LJe0MB-4" vertex="1">
          <mxGeometry y="60" width="137" height="30" as="geometry" />
        </mxCell>
        <mxCell id="hCYh_Cv7vTijE-DijBDx-37" value="Data Information" style="text;strokeColor=none;fillColor=none;align=left;verticalAlign=middle;spacingLeft=4;spacingRight=4;overflow=hidden;points=[[0,0.5],[1,0.5]];portConstraint=eastwest;rotatable=0;whiteSpace=wrap;html=1;" parent="hBn50WoYmxZNv8LJe0MB-4" vertex="1">
          <mxGeometry y="90" width="137" height="30" as="geometry" />
        </mxCell>
        <mxCell id="hCYh_Cv7vTijE-DijBDx-1" value="Metrics" style="text;strokeColor=none;fillColor=none;align=left;verticalAlign=middle;spacingLeft=4;spacingRight=4;overflow=hidden;points=[[0,0.5],[1,0.5]];portConstraint=eastwest;rotatable=0;whiteSpace=wrap;html=1;" parent="hBn50WoYmxZNv8LJe0MB-4" vertex="1">
          <mxGeometry y="120" width="137" height="30" as="geometry" />
        </mxCell>
        <mxCell id="hBn50WoYmxZNv8LJe0MB-7" value="Risks" style="text;strokeColor=none;fillColor=none;align=left;verticalAlign=middle;spacingLeft=4;spacingRight=4;overflow=hidden;points=[[0,0.5],[1,0.5]];portConstraint=eastwest;rotatable=0;whiteSpace=wrap;html=1;" parent="hBn50WoYmxZNv8LJe0MB-4" vertex="1">
          <mxGeometry y="150" width="137" height="30" as="geometry" />
        </mxCell>
        <mxCell id="hBn50WoYmxZNv8LJe0MB-9" value="Use Case Lead&lt;br&gt;AI Expert" style="shape=umlActor;verticalLabelPosition=top;verticalAlign=bottom;html=1;outlineConnect=0;labelPosition=center;align=center;fontFamily=Helvetica;" parent="1" vertex="1">
          <mxGeometry x="216.5" y="220" width="30" height="60" as="geometry" />
        </mxCell>
        <mxCell id="hBn50WoYmxZNv8LJe0MB-17" value="AI scenario model" style="swimlane;fontStyle=0;childLayout=stackLayout;horizontal=1;startSize=30;horizontalStack=0;resizeParent=1;resizeParentMax=0;resizeLast=0;collapsible=1;marginBottom=0;whiteSpace=wrap;html=1;fillColor=#d5e8d4;strokeColor=#82b366;" parent="1" vertex="1">
          <mxGeometry x="163" y="420" width="137" height="120" as="geometry" />
        </mxCell>
        <mxCell id="hBn50WoYmxZNv8LJe0MB-18" value="AI Algorithm(s)" style="text;strokeColor=none;fillColor=none;align=left;verticalAlign=middle;spacingLeft=4;spacingRight=4;overflow=hidden;points=[[0,0.5],[1,0.5]];portConstraint=eastwest;rotatable=0;whiteSpace=wrap;html=1;" parent="hBn50WoYmxZNv8LJe0MB-17" vertex="1">
          <mxGeometry y="30" width="137" height="30" as="geometry" />
        </mxCell>
        <mxCell id="hBn50WoYmxZNv8LJe0MB-19" value="(Personal)&amp;nbsp;&lt;span style=&quot;background-color: initial;&quot;&gt;Data&lt;/span&gt;" style="text;strokeColor=none;fillColor=none;align=left;verticalAlign=middle;spacingLeft=4;spacingRight=4;overflow=hidden;points=[[0,0.5],[1,0.5]];portConstraint=eastwest;rotatable=0;whiteSpace=wrap;html=1;" parent="hBn50WoYmxZNv8LJe0MB-17" vertex="1">
          <mxGeometry y="60" width="137" height="30" as="geometry" />
        </mxCell>
        <mxCell id="hBn50WoYmxZNv8LJe0MB-20" value="Involved Participants" style="text;strokeColor=none;fillColor=none;align=left;verticalAlign=middle;spacingLeft=4;spacingRight=4;overflow=hidden;points=[[0,0.5],[1,0.5]];portConstraint=eastwest;rotatable=0;whiteSpace=wrap;html=1;" parent="hBn50WoYmxZNv8LJe0MB-17" vertex="1">
          <mxGeometry y="90" width="137" height="30" as="geometry" />
        </mxCell>
        <mxCell id="hCYh_Cv7vTijE-DijBDx-4" value="uses" style="endArrow=none;dashed=1;html=1;rounded=0;" parent="1" source="hBn50WoYmxZNv8LJe0MB-9" target="hCYh_Cv7vTijE-DijBDx-15" edge="1">
          <mxGeometry width="50" height="50" relative="1" as="geometry">
            <mxPoint x="400" y="480" as="sourcePoint" />
            <mxPoint x="290" y="320" as="targetPoint" />
          </mxGeometry>
        </mxCell>
        <mxCell id="hCYh_Cv7vTijE-DijBDx-12" value="Data Subject" style="shape=umlActor;verticalLabelPosition=top;verticalAlign=bottom;html=1;outlineConnect=0;horizontal=1;labelPosition=center;align=center;" parent="1" vertex="1">
          <mxGeometry x="523" y="220" width="30" height="60" as="geometry" />
        </mxCell>
        <mxCell id="hCYh_Cv7vTijE-DijBDx-14" value="uses" style="endArrow=none;dashed=1;html=1;rounded=0;" parent="1" source="hCYh_Cv7vTijE-DijBDx-12" target="hCYh_Cv7vTijE-DijBDx-17" edge="1">
          <mxGeometry width="50" height="50" relative="1" as="geometry">
            <mxPoint x="780" y="480" as="sourcePoint" />
            <mxPoint x="660.5" y="320" as="targetPoint" />
          </mxGeometry>
        </mxCell>
        <mxCell id="hCYh_Cv7vTijE-DijBDx-19" value="" style="group" parent="1" vertex="1" connectable="0">
          <mxGeometry x="554" y="310" width="160" height="80" as="geometry" />
        </mxCell>
        <mxCell id="hCYh_Cv7vTijE-DijBDx-17" value="Visualization BB" style="shape=cube;whiteSpace=wrap;html=1;boundedLbl=1;backgroundOutline=1;darkOpacity=0.05;darkOpacity2=0.1;fillColor=#fff2cc;strokeColor=#d6b656;" parent="hCYh_Cv7vTijE-DijBDx-19" vertex="1">
          <mxGeometry x="40" width="120" height="80" as="geometry" />
        </mxCell>
        <mxCell id="hCYh_Cv7vTijE-DijBDx-18" value="PDC" style="shape=cube;whiteSpace=wrap;html=1;boundedLbl=1;backgroundOutline=1;darkOpacity=0.05;darkOpacity2=0.1;fillColor=#fff2cc;strokeColor=#d6b656;" parent="hCYh_Cv7vTijE-DijBDx-19" vertex="1">
          <mxGeometry y="20" width="60" height="40" as="geometry" />
        </mxCell>
        <mxCell id="hCYh_Cv7vTijE-DijBDx-20" value="" style="group" parent="1" vertex="1" connectable="0">
          <mxGeometry x="283" y="310" width="160" height="80" as="geometry" />
        </mxCell>
        <mxCell id="hCYh_Cv7vTijE-DijBDx-16" value="PDC" style="shape=cube;whiteSpace=wrap;html=1;boundedLbl=1;backgroundOutline=1;darkOpacity=0.05;darkOpacity2=0.1;fillColor=#fff2cc;strokeColor=#d6b656;" parent="hCYh_Cv7vTijE-DijBDx-20" vertex="1">
          <mxGeometry x="100" y="20" width="60" height="40" as="geometry" />
        </mxCell>
        <mxCell id="hCYh_Cv7vTijE-DijBDx-15" value="CARiSMA&lt;br&gt;Analyzer" style="shape=cube;whiteSpace=wrap;html=1;boundedLbl=1;backgroundOutline=1;darkOpacity=0.05;darkOpacity2=0.1;" parent="hCYh_Cv7vTijE-DijBDx-20" vertex="1">
          <mxGeometry width="120" height="80" as="geometry" />
        </mxCell>
        <mxCell id="hCYh_Cv7vTijE-DijBDx-22" value="CARiSMA&lt;br&gt;Modeler" style="shape=cube;whiteSpace=wrap;html=1;boundedLbl=1;backgroundOutline=1;darkOpacity=0.05;darkOpacity2=0.1;" parent="1" vertex="1">
          <mxGeometry x="60" y="310" width="120" height="80" as="geometry" />
        </mxCell>
        <mxCell id="hCYh_Cv7vTijE-DijBDx-26" value="uses" style="endArrow=none;dashed=1;html=1;rounded=0;" parent="1" source="hBn50WoYmxZNv8LJe0MB-9" target="hCYh_Cv7vTijE-DijBDx-22" edge="1">
          <mxGeometry width="50" height="50" relative="1" as="geometry">
            <mxPoint x="400" y="480" as="sourcePoint" />
            <mxPoint x="450" y="430" as="targetPoint" />
          </mxGeometry>
        </mxCell>
        <mxCell id="hCYh_Cv7vTijE-DijBDx-30" value="" style="endArrow=classic;html=1;rounded=0;" parent="1" source="hCYh_Cv7vTijE-DijBDx-22" target="hCYh_Cv7vTijE-DijBDx-15" edge="1">
          <mxGeometry relative="1" as="geometry">
            <mxPoint x="370" y="450" as="sourcePoint" />
            <mxPoint x="470" y="450" as="targetPoint" />
          </mxGeometry>
        </mxCell>
        <mxCell id="hCYh_Cv7vTijE-DijBDx-32" value="" style="endArrow=classic;html=1;rounded=0;" parent="1" source="hCYh_Cv7vTijE-DijBDx-16" target="hCYh_Cv7vTijE-DijBDx-18" edge="1">
          <mxGeometry relative="1" as="geometry">
            <mxPoint x="370" y="450" as="sourcePoint" />
            <mxPoint x="470" y="450" as="targetPoint" />
          </mxGeometry>
        </mxCell>
        <mxCell id="hCYh_Cv7vTijE-DijBDx-34" value="" style="endArrow=none;dashed=1;html=1;rounded=0;" parent="1" edge="1">
          <mxGeometry width="50" height="50" relative="1" as="geometry">
            <mxPoint x="499" y="420" as="sourcePoint" />
            <mxPoint x="499" y="350" as="targetPoint" />
          </mxGeometry>
        </mxCell>
        <mxCell id="hCYh_Cv7vTijE-DijBDx-35" value="" style="endArrow=none;dashed=1;html=1;rounded=0;" parent="1" edge="1">
          <mxGeometry width="50" height="50" relative="1" as="geometry">
            <mxPoint x="232" y="350" as="sourcePoint" />
            <mxPoint x="232" y="420" as="targetPoint" />
          </mxGeometry>
        </mxCell>
      </root>
    </mxGraphModel>
  </diagram>
</mxfile>
